<svg width="50" height="50" viewBox="0 0 50 50" fill="none" xmlns="http://www.w3.org/2000/svg">
<path fill-rule="evenodd" clip-rule="evenodd" d="M23.6917 0.395862C24.4833 -0.131222 25.5146 -0.131222 26.3083 0.395862L48.9417 15.4167C49.6021 15.8542 50 16.5938 50 17.3875V32.6125C50 33.4042 49.6042 34.1459 48.9417 34.5854L26.3083 49.6063C25.5167 50.1313 24.4854 50.1313 23.6917 49.6063L1.05833 34.5834C0.733093 34.3676 0.466264 34.0747 0.281612 33.7309C0.0969601 33.387 0.000217154 33.0028 0 32.6125L0 17.3875C0 16.5959 0.395833 15.8542 1.05833 15.4146L23.6917 0.395862ZM4.73333 21.7979V28.1688L9.5 24.9604L4.73333 21.7979V21.7979ZM13.7687 27.7938L6.625 32.6L22.6333 43.225V33.6771L13.7708 27.7938H13.7687ZM27.3667 33.6771V43.2229L43.375 32.5979L36.2292 27.7938L27.3667 33.6771V33.6771ZM40.4979 24.9625L45.2687 28.1709V21.7959L40.4979 24.9625V24.9625ZM43.3542 17.3875L36.25 22.1021L27.3667 16.1271V6.77711L43.3542 17.3875ZM22.6333 6.77711V16.125L13.7521 22.1L6.64583 17.3875L22.6333 6.77711V6.77711ZM25 20.2396L18.0208 24.9354L25 29.5667L31.9792 24.9354L25 20.2396Z" fill="#09091E"/>
</svg>
