<svg width="86" height="50" viewBox="0 0 86 50" fill="none" xmlns="http://www.w3.org/2000/svg">
<path d="M13.582 42.5518L2.69629 31.7354C2.23405 31.2731 1.77181 30.7531 1.30957 30.1753C0.847331 29.5744 0.616211 28.9157 0.616211 28.1992C0.616211 27.529 0.824219 26.9281 1.24023 26.3965C1.65625 25.8418 2.16471 25.264 2.76562 24.6631L13.6514 13.8467C14.1829 13.3151 14.7261 12.8413 15.2808 12.4253C15.8586 11.9862 16.4941 11.7666 17.1875 11.7666C18.112 11.7666 19.1058 12.2982 20.1689 13.3613C21.1396 14.332 21.625 15.2796 21.625 16.2041C21.625 16.8975 21.417 17.5446 21.001 18.1455C20.6081 18.7233 20.1458 19.278 19.6143 19.8096L11.0859 28.2686L19.5449 36.5889C20.0996 37.1436 20.585 37.7098 21.001 38.2876C21.417 38.8423 21.625 39.4548 21.625 40.125C21.625 40.5872 21.5094 41.061 21.2783 41.5464C21.0472 42.0317 20.6312 42.5749 20.0303 43.1758C19.0596 44.1465 18.112 44.6318 17.1875 44.6318C16.5173 44.6318 15.8817 44.4238 15.2808 44.0078C14.703 43.5918 14.1367 43.1064 13.582 42.5518ZM55.1143 6.91309L38.2656 46.4346C37.8958 47.2666 37.4105 48.0524 36.8096 48.792C36.2318 49.5316 35.4229 49.9014 34.3828 49.9014C33.8512 49.9014 33.2041 49.7396 32.4414 49.416C31.4938 49 30.812 48.5378 30.396 48.0293C29.98 47.5208 29.7373 46.9893 29.668 46.4346C29.668 45.7643 29.7373 45.1865 29.876 44.7012C30.0378 44.2158 30.2227 43.7074 30.4307 43.1758L47.3486 3.58496C47.6953 2.77604 48.0882 2.03646 48.5273 1.36621C48.9896 0.672852 49.6829 0.279948 50.6074 0.1875C51.5781 0.1875 52.4564 0.349284 53.2422 0.672852C54.1436 1.06576 54.7907 1.51644 55.1836 2.0249C55.5765 2.51025 55.8076 3.03027 55.877 3.58496C55.877 4.27832 55.7961 4.89079 55.6343 5.42236C55.4956 5.95394 55.3223 6.45085 55.1143 6.91309ZM83.1953 31.7354L72.3096 42.5518C71.7549 43.1064 71.1771 43.5918 70.5762 44.0078C69.9984 44.4238 69.3743 44.6318 68.7041 44.6318C67.7796 44.6318 66.832 44.1465 65.8613 43.1758C65.2604 42.5749 64.8444 42.0317 64.6133 41.5464C64.3822 41.061 64.2666 40.5872 64.2666 40.125C64.2666 39.4548 64.4746 38.8423 64.8906 38.2876C65.3066 37.7098 65.792 37.1436 66.3467 36.5889L74.8057 28.2686L66.2773 19.8096C65.7458 19.278 65.272 18.7233 64.856 18.1455C64.4631 17.5446 64.2666 16.8975 64.2666 16.2041C64.2666 15.2796 64.752 14.332 65.7227 13.3613C66.7858 12.2982 67.7796 11.7666 68.7041 11.7666C69.3975 11.7666 70.0215 11.9862 70.5762 12.4253C71.154 12.8413 71.7087 13.3151 72.2402 13.8467L83.126 24.6631C83.7269 25.264 84.2354 25.8418 84.6514 26.3965C85.0674 26.9281 85.2754 27.529 85.2754 28.1992C85.2754 28.9157 85.0443 29.5744 84.582 30.1753C84.1198 30.7531 83.6576 31.2731 83.1953 31.7354Z" fill="url(#paint0_linear_611_4)"/>
<defs>
<linearGradient id="paint0_linear_611_4" x1="-5" y1="-38" x2="122.586" y2="34.1307" gradientUnits="userSpaceOnUse">
<stop stop-color="#FF008E"/>
<stop offset="1" stop-color="#FFCD1E"/>
</linearGradient>
</defs>
</svg>
