<svg width="51" height="51" viewBox="0 0 51 51" fill="none" xmlns="http://www.w3.org/2000/svg">
<path fill-rule="evenodd" clip-rule="evenodd" d="M7.31409 7.66611C9.63909 5.28874 12.4162 3.40051 15.4819 2.11257C18.5476 0.824624 21.8401 0.163001 25.1653 0.166641C36.362 0.166641 45.8314 7.52362 49.0187 17.6654H32.6648C32.0018 17.6654 31.366 17.9288 30.8972 18.3976C30.4284 18.8664 30.165 19.5022 30.165 20.1652C30.165 20.8282 30.4284 21.4641 30.8972 21.9329C31.366 22.4017 32.0018 22.6651 32.6648 22.6651H50.0386C50.1211 23.49 50.1636 24.3224 50.1636 25.1649C50.1636 38.9714 38.9719 50.1631 25.1653 50.1631C21.84 50.1669 18.5476 49.5053 15.4818 48.2174C12.4161 46.9294 9.639 45.0411 7.31409 42.6636H22.6655C23.3285 42.6636 23.9643 42.4003 24.4332 41.9315C24.902 41.4627 25.1653 40.8268 25.1653 40.1638C25.1653 39.5008 24.902 38.865 24.4332 38.3962C23.9643 37.9274 23.3285 37.664 22.6655 37.664H3.51186C2.59726 36.0833 1.85953 34.4066 1.31202 32.6644H27.6652C28.3282 32.6644 28.964 32.401 29.4328 31.9322C29.9016 31.4634 30.165 30.8275 30.165 30.1645C30.165 29.5015 29.9016 28.8657 29.4328 28.3969C28.964 27.9281 28.3282 27.6647 27.6652 27.6647H0.292088C-0.23978 22.4505 0.887889 17.2015 3.51436 12.6658H25.1653C25.8283 12.6658 26.4642 12.4024 26.933 11.9336C27.4018 11.4648 27.6652 10.8289 27.6652 10.1659C27.6652 9.50294 27.4018 8.8671 26.933 8.3983C26.4642 7.92949 25.8283 7.66611 25.1653 7.66611H7.31409ZM20.1657 17.6654C19.5027 17.6654 18.8669 17.9288 18.398 18.3976C17.9292 18.8664 17.6659 19.5022 17.6659 20.1652C17.6659 20.8282 17.9292 21.4641 18.398 21.9329C18.8669 22.4017 19.5027 22.6651 20.1657 22.6651H25.1653C25.8283 22.6651 26.4642 22.4017 26.933 21.9329C27.4018 21.4641 27.6652 20.8282 27.6652 20.1652C27.6652 19.5022 27.4018 18.8664 26.933 18.3976C26.4642 17.9288 25.8283 17.6654 25.1653 17.6654H20.1657ZM14.4361 21.9351C13.9673 22.4038 13.3316 22.667 12.6687 22.667C12.0059 22.667 11.3701 22.4038 10.9013 21.9351H10.8988C10.4298 21.4664 10.1661 20.8305 10.1659 20.1674C10.1658 19.839 10.2303 19.5139 10.3559 19.2105C10.4814 18.9071 10.6655 18.6314 10.8976 18.3991C11.1297 18.1668 11.4053 17.9826 11.7086 17.8568C12.0119 17.7311 12.337 17.6663 12.6653 17.6662C13.3285 17.6659 13.9645 17.9291 14.4336 18.3979C14.666 18.63 14.8504 18.9057 14.9762 19.2092C15.102 19.5127 15.1668 19.838 15.1668 20.1665C15.1668 20.495 15.102 20.8203 14.9762 21.1238C14.8504 21.4272 14.666 21.7029 14.4336 21.9351H14.4361ZM33.3998 31.9344C33.6304 32.1732 33.9062 32.3636 34.2112 32.4946C34.5162 32.6256 34.8442 32.6946 35.1761 32.6975C35.5081 32.7004 35.8372 32.6371 36.1444 32.5114C36.4517 32.3857 36.7308 32.2001 36.9655 31.9654C37.2002 31.7307 37.3858 31.4516 37.5115 31.1443C37.6372 30.8371 37.7005 30.5079 37.6976 30.176C37.6947 29.8441 37.6257 29.5161 37.4947 29.2111C37.3637 28.9061 37.1733 28.6303 36.9345 28.3997V28.3972C36.4658 27.9281 35.8299 27.6644 35.1668 27.6642C34.5036 27.664 33.8676 27.9272 33.3985 28.3959C32.9294 28.8646 32.6658 29.5005 32.6656 30.1636C32.6653 30.8268 32.9285 31.4628 33.3973 31.9319L33.3998 31.9344Z" fill="url(#paint0_linear_613_4)"/>
<defs>
<linearGradient id="paint0_linear_613_4" x1="1.1148e-07" y1="-1.02962e-07" x2="50" y2="50" gradientUnits="userSpaceOnUse">
<stop stop-color="#8257E5"/>
<stop offset="1" stop-color="#02D361"/>
</linearGradient>
</defs>
</svg>
