<svg width="50" height="51" viewBox="0 0 50 51" fill="none" xmlns="http://www.w3.org/2000/svg">
<path d="M28.5714 4.14284C28.5714 2.17074 30.1674 0.571411 32.1429 0.571411H46.3281C46.9085 0.571411 47.3772 0.667391 47.7902 0.842621C48.1138 1.01561 48.6049 1.27119 48.9509 1.60936C48.9509 1.61494 48.9509 1.62052 48.9621 1.62498C49.654 2.31918 49.8996 3.22543 50 4.13168C50 4.13614 50 4.13949 50 4.14284V18.4286C50 20.404 48.404 22 46.4286 22C44.4531 22 42.8571 20.404 42.8571 18.4286V12.7701L23.9509 31.6652C22.5558 33.0603 20.3013 33.0603 18.9062 31.6652C17.5112 30.2701 17.5112 28.0156 18.9062 26.6205L37.8013 7.71427H32.1429C30.1674 7.71427 28.5714 6.11494 28.5714 4.14284ZM0 11.2857C0 7.34037 3.19754 4.14284 7.14286 4.14284H17.8571C19.8326 4.14284 21.4286 5.74217 21.4286 7.71427C21.4286 9.68967 19.8326 11.2857 17.8571 11.2857H7.14286V43.4286H39.2857V32.7143C39.2857 30.7389 40.8817 29.1429 42.8571 29.1429C44.8326 29.1429 46.4286 30.7389 46.4286 32.7143V43.4286C46.4286 47.3683 43.2254 50.5714 39.2857 50.5714H7.14286C3.19754 50.5714 0 47.3683 0 43.4286V11.2857Z" fill="#00FA9A"/>
</svg>
