<svg width="50" height="50" viewBox="0 0 50 50" fill="none" xmlns="http://www.w3.org/2000/svg">
<path d="M49.2563 10.2854C47.5167 11.0563 45.6479 11.5771 43.6833 11.8125C45.7104 10.5996 47.227 8.69056 47.95 6.44167C46.0455 7.5729 43.9611 8.36916 41.7875 8.79584C40.3258 7.23514 38.3897 6.20068 36.2798 5.85307C34.17 5.50546 32.0044 5.86415 30.1192 6.87345C28.2341 7.88274 26.735 9.48617 25.8545 11.4348C24.974 13.3834 24.7615 15.5682 25.25 17.65C21.391 17.4562 17.6159 16.4532 14.1696 14.7061C10.7234 12.9589 7.68301 10.5066 5.24584 7.50834C4.4125 8.94584 3.93334 10.6125 3.93334 12.3875C3.93241 13.9854 4.32591 15.5588 5.07892 16.9682C5.83193 18.3775 6.92117 19.5792 8.25 20.4667C6.70891 20.4176 5.20182 20.0012 3.85417 19.2521V19.3771C3.85402 21.6182 4.62924 23.7904 6.0483 25.525C7.46736 27.2596 9.44286 28.4499 11.6396 28.8938C10.21 29.2807 8.71112 29.3376 7.25625 29.0604C7.87604 30.9888 9.08333 32.6751 10.7091 33.8832C12.3349 35.0913 14.2977 35.7608 16.3229 35.7979C12.8851 38.4967 8.63935 39.9606 4.26875 39.9542C3.49455 39.9544 2.721 39.9092 1.95209 39.8188C6.3885 42.6712 11.5528 44.185 16.8271 44.1792C34.6813 44.1792 44.4417 29.3917 44.4417 16.5667C44.4417 16.15 44.4313 15.7292 44.4125 15.3125C46.311 13.9395 47.9498 12.2394 49.2521 10.2917L49.2563 10.2854V10.2854Z" fill="#09091E"/>
</svg>
