<svg width="128" height="128" viewBox="0 0 128 128" fill="none" xmlns="http://www.w3.org/2000/svg">
<path d="M107.845 57.392C110.608 54.3669 112.095 50.3912 111.996 46.2955C111.897 42.1997 110.218 38.3008 107.312 35.4133C104.293 32.3893 100.272 30.7253 96 30.7253C91.728 30.7253 87.7067 32.3893 84.688 35.4133C84.0717 36.027 83.3404 36.5129 82.5359 36.8433C81.7315 37.1737 80.8697 37.342 80 37.3387C78.224 37.3387 76.5547 36.6507 75.312 35.408C68.0267 28.1227 58.3253 24.112 48 24.112C37.6747 24.112 27.9733 28.1227 20.688 35.408C17.7848 38.2984 16.109 42.1975 16.0096 46.293C15.9102 50.3884 17.3951 54.3643 20.1547 57.392C17.4987 60.3307 16 64.0693 16 68.0587C16 72.048 17.4987 75.7813 20.1547 78.7253C17.3917 81.7504 15.9046 85.7261 16.0039 89.8219C16.1033 93.9176 17.7816 97.8165 20.688 100.704C23.7067 103.723 27.728 105.392 32 105.392C36.272 105.392 40.2933 103.728 43.312 100.704C44.56 99.4613 46.2187 98.7733 47.9947 98.7733C49.7707 98.7733 51.44 99.4613 52.688 100.709C56.2689 104.302 60.5263 107.15 65.2141 109.088C69.902 111.026 74.9274 112.016 80 112C85.0733 112.017 90.0995 111.027 94.7877 109.088C99.4759 107.149 103.733 104.3 107.312 100.704C110.216 97.8152 111.893 93.9167 111.992 89.8218C112.091 85.7268 110.606 81.7516 107.845 78.7253C110.501 75.7813 112 72.048 112 68.0587C112 64.0693 110.501 60.3307 107.845 57.392ZM99.7707 93.1627C97.1755 95.7593 94.0931 97.8178 90.7003 99.2199C87.3075 100.622 83.6711 101.34 80 101.333C76.329 101.339 72.6929 100.621 69.3002 99.2187C65.9076 97.8166 62.825 95.7586 60.2293 93.1627C58.6239 91.5566 56.7173 90.2832 54.6187 89.4156C52.5201 88.548 50.2709 88.1032 48 88.1067C43.568 88.1067 39.1413 89.792 35.776 93.1627C34.7631 94.0984 33.4274 94.606 32.0486 94.5789C30.6699 94.5519 29.3551 93.9924 28.3796 93.0176C27.4041 92.0429 26.8437 90.7285 26.8157 89.3497C26.7877 87.971 27.2943 86.6349 28.2293 85.6213C30.8237 83.0251 33.9052 80.9669 37.2971 79.5647C40.689 78.1626 44.3244 77.4441 47.9947 77.4507C51.6666 77.4439 55.3037 78.1622 58.6973 79.5643C62.091 80.9664 65.1744 83.0248 67.7707 85.6213C69.3762 87.2269 71.283 88.4996 73.3816 89.3664C75.4803 90.2331 77.7294 90.6768 80 90.672C82.2707 90.6777 84.5201 90.2344 86.6189 89.3676C88.7177 88.5008 90.6244 87.2277 92.2293 85.6213C92.7235 85.1244 93.311 84.7299 93.9581 84.4608C94.6052 84.1917 95.2992 84.0531 96 84.0531C96.7009 84.0531 97.3948 84.1917 98.0419 84.4608C98.689 84.7299 99.2765 85.1244 99.7707 85.6213C100.266 86.1162 100.66 86.704 100.928 87.351C101.196 87.998 101.334 88.6916 101.334 89.392C101.334 90.0924 101.196 90.786 100.928 91.433C100.66 92.08 100.266 92.6678 99.7707 93.1627ZM28.2293 42.9547C30.8237 40.3566 33.9059 38.2968 37.2988 36.8937C40.6917 35.4906 44.3284 34.7718 48 34.7787C55.1627 34.7787 62.32 37.504 67.7707 42.9493C69.3752 44.5566 71.2817 45.8308 73.3805 46.6985C75.4793 47.5662 77.7289 48.0103 80 48.0053C82.2707 48.011 84.5201 47.5677 86.6189 46.7009C88.7177 45.8341 90.6244 44.561 92.2293 42.9547C92.7235 42.4577 93.311 42.0633 93.9581 41.7942C94.6052 41.525 95.2992 41.3865 96 41.3865C96.7009 41.3865 97.3948 41.525 98.0419 41.7942C98.689 42.0633 99.2765 42.4577 99.7707 42.9547C100.266 43.4495 100.66 44.0373 100.928 44.6843C101.196 45.3313 101.334 46.0249 101.334 46.7253C101.334 47.4258 101.196 48.1194 100.928 48.7664C100.66 49.4134 100.266 50.0011 99.7707 50.496C97.1755 53.0926 94.0931 55.1511 90.7003 56.5532C87.3075 57.9554 83.6711 58.6736 80 58.6667C76.329 58.6727 72.6929 57.9541 69.3002 56.552C65.9076 55.1499 62.825 53.0919 60.2293 50.496C58.6239 48.8899 56.7173 47.6165 54.6187 46.7489C52.5201 45.8813 50.2709 45.4365 48 45.44C43.568 45.44 39.1413 47.1253 35.776 50.496C34.7631 51.4318 33.4274 51.9393 32.0486 51.9123C30.6699 51.8852 29.3551 51.3257 28.3796 50.351C27.4041 49.3762 26.8437 48.0618 26.8157 46.6831C26.7877 45.3043 27.2943 43.9682 28.2293 42.9547ZM99.7707 71.8293C97.1755 74.426 94.0931 76.4844 90.7003 77.8866C87.3075 79.2887 83.6711 80.007 80 80C76.329 80.0061 72.6929 79.2875 69.3002 77.8854C65.9076 76.4833 62.825 74.4252 60.2293 71.8293C58.6239 70.2232 56.7173 68.9499 54.6187 68.0822C52.5201 67.2146 50.2709 66.7698 48 66.7733C43.568 66.7733 39.1413 68.4587 35.776 71.8293C34.7631 72.7651 33.4274 73.2726 32.0486 73.2456C30.6699 73.2186 29.3551 72.6591 28.3796 71.6843C27.4041 70.7095 26.8437 69.3951 26.8157 68.0164C26.7877 66.6377 27.2943 65.3016 28.2293 64.288C30.8237 61.6918 33.9052 59.6335 37.2971 58.2314C40.689 56.8292 44.3244 56.1108 47.9947 56.1173C51.6666 56.1106 55.3037 56.8288 58.6973 58.231C62.091 59.6331 65.1744 61.6915 67.7707 64.288C69.3762 65.8936 71.283 67.1663 73.3816 68.033C75.4803 68.8998 77.7294 69.3435 80 69.3387C82.2707 69.3444 84.5201 68.9011 86.6189 68.0343C88.7177 67.1675 90.6244 65.8943 92.2293 64.288C92.7235 63.791 93.311 63.3966 93.9581 63.1275C94.6052 62.8584 95.2992 62.7198 96 62.7198C96.7009 62.7198 97.3948 62.8584 98.0419 63.1275C98.689 63.3966 99.2765 63.791 99.7707 64.288C100.266 64.7829 100.66 65.3706 100.928 66.0176C101.196 66.6647 101.334 67.3582 101.334 68.0587C101.334 68.7591 101.196 69.4527 100.928 70.0997C100.66 70.7467 100.266 71.3345 99.7707 71.8293Z" fill="url(#paint0_linear_912_24)"/>
<defs>
<linearGradient id="paint0_linear_912_24" x1="64" y1="24.112" x2="64" y2="112" gradientUnits="userSpaceOnUse">
<stop stop-color="#8257E5"/>
<stop offset="0.499955" stop-color="#FF876E"/>
<stop offset="1" stop-color="#FFBD2C"/>
</linearGradient>
</defs>
</svg>